D:\school\WTK\thesis\model\3dpredictsim\Results\debug_batch\Pog_s1_tmt_aCst_d05_k1000_ig24_act_TTC_GRF.mot
nRows=20
nColumns=19

name D:\school\WTK\thesis\model\3dpredictsim\Results\debug_batch\Pog_s1_tmt_aCst_d05_k1000_ig24_act_TTC_GRF.mot
datacolumns 19
datarows 20
range 0.6257499506 0.8635349318
endheader
time 	ground_force_vx	ground_force_vy	ground_force_vz	ground_force_px	ground_force_py	ground_force_pz	1_ground_force_vx	1_ground_force_vy	1_ground_force_vz	1_ground_force_px	1_ground_force_py	1_ground_force_pz	ground_torque_x	ground_torque_y	ground_torque_z	1_ground_torque_x	1_ground_torque_y	1_ground_torque_z
        0.6257499506	      110.2818284909	      429.9725873226	        1.1061893900	        0.4240054280	        0.0000000000	        0.0350477801	      -38.9406407677	       31.1944082596	      -10.5366743914	        0.9859975161	        0.0000000000	       -0.0521139579	        0.0000000000	        0.0000000000	        0.0000000000	        0.0000000000	        0.0000000000	        0.0000000000	
        0.6382649496	       74.4794257709	      327.0633866706	        6.9095488013	        0.4319386817	        0.0000000000	        0.0319270888	     -113.6736889509	      118.6829660798	      -45.0100013008	        0.9937647707	        0.0000000000	       -0.0501534428	        0.0000000000	        0.0000000000	        0.0000000000	        0.0000000000	        0.0000000000	        0.0000000000	
        0.6507799486	       39.2829840922	      215.1574435138	       13.7797382412	        0.4459391539	        0.0000000000	        0.0260395890	      -61.4598025328	      312.4946798556	      -14.8361630541	        0.9990674807	        0.0000000000	       -0.0481610200	        0.0000000000	        0.0000000000	        0.0000000000	        0.0000000000	        0.0000000000	        0.0000000000	
        0.6632949476	       25.0182617818	      166.5149367679	       14.3396592352	        0.4513618088	        0.0000000000	        0.0234372198	      -63.8528112287	      526.4013094429	        6.3998652848	        1.0021033788	        0.0000000000	       -0.0479991429	        0.0000000000	        0.0000000000	        0.0000000000	        0.0000000000	        0.0000000000	        0.0000000000	
        0.6758099467	       20.0937780877	      123.2661170951	       16.6582473146	        0.4517650228	        0.0000000000	        0.0237043728	     -113.3150051374	      744.3310375789	       15.6137339215	        1.0107485436	        0.0000000000	       -0.0498993041	        0.0000000000	        0.0000000000	        0.0000000000	        0.0000000000	        0.0000000000	        0.0000000000	
        0.6883249457	        7.7654864764	       69.2643195786	       15.4301776983	        0.4518186632	        0.0000000000	        0.0240336134	     -148.7922070323	      887.1308884595	       21.2441120636	        1.0191214194	        0.0000000000	       -0.0518013657	        0.0000000000	        0.0000000000	        0.0000000000	        0.0000000000	        0.0000000000	        0.0000000000	
        0.7008399447	       -5.4437232745	       11.7953566740	        3.4328708226	        0.4489319110	        0.0000000000	        0.0237740542	     -155.3215189756	      912.8788155610	       21.3466016833	        1.0245468516	        0.0000000000	       -0.0529038881	        0.0000000000	        0.0000000000	        0.0000000000	        0.0000000000	        0.0000000000	        0.0000000000	
        0.7133549437	        0.0033990442	       -0.0029108316	        0.0001031263	        0.0000000000	        0.0000000000	        0.0000000000	     -141.3139931542	      879.0133778769	       20.3217395151	        1.0284958732	        0.0000000000	       -0.0535434354	        0.0000000000	        0.0000000000	        0.0000000000	        0.0000000000	        0.0000000000	        0.0000000000	
        0.7258699427	        0.0037502125	       -0.0027162923	        0.0002237625	        0.0000000000	        0.0000000000	        0.0000000000	     -122.5140706331	      820.9473572068	       19.1424750524	        1.0321724663	        0.0000000000	       -0.0538886184	        0.0000000000	        0.0000000000	        0.0000000000	        0.0000000000	        0.0000000000	        0.0000000000	
        0.7383849417	        0.0314863143	       -0.0199196551	        0.0022952501	        0.0000000000	        0.0000000000	        0.0000000000	     -107.3861736434	      768.5616588663	       18.0737603281	        1.0360272846	        0.0000000000	       -0.0539754675	        0.0000000000	        0.0000000000	        0.0000000000	        0.0000000000	        0.0000000000	        0.0000000000	
        0.7508999407	       -0.3121434733	        0.1793211881	       -0.0242568354	        0.0000000000	        0.0000000000	        0.0000000000	      -94.4988934610	      728.7977755651	       17.8214653895	        1.0402486068	        0.0000000000	       -0.0538977666	        0.0000000000	        0.0000000000	        0.0000000000	        0.0000000000	        0.0000000000	        0.0000000000	
        0.7634149397	       -0.2874724046	        0.1534889501	       -0.0227566117	        0.0000000000	        0.0000000000	        0.0000000000	      -84.2390531712	      699.4481154609	       17.9913630611	        1.0451348698	        0.0000000000	       -0.0536393901	        0.0000000000	        0.0000000000	        0.0000000000	        0.0000000000	        0.0000000000	        0.0000000000	
        0.7759299387	       -0.1712772731	        0.0867800474	       -0.0130343853	        0.0000000000	        0.0000000000	        0.0000000000	      -74.4343809244	      674.8577819810	       18.5145848098	        1.0501066596	        0.0000000000	       -0.0533220357	        0.0000000000	        0.0000000000	        0.0000000000	        0.0000000000	        0.0000000000	        0.0000000000	
        0.7884449378	       -0.1130251910	        0.0548359138	       -0.0084497439	        0.0000000000	        0.0000000000	        0.0000000000	      -64.8132930952	      651.7426429548	       19.3980679648	        1.0547947989	        0.0000000000	       -0.0530694371	        0.0000000000	        0.0000000000	        0.0000000000	        0.0000000000	        0.0000000000	        0.0000000000	
        0.8009599368	       -0.0917527365	        0.0428962742	       -0.0067660013	        0.0000000000	        0.0000000000	        0.0000000000	      -55.9213966719	      631.4997994498	       19.7278007743	        1.0592779293	        0.0000000000	       -0.0529093391	        0.0000000000	        0.0000000000	        0.0000000000	        0.0000000000	        0.0000000000	        0.0000000000	
        0.8134749358	       -0.0914224351	        0.0414420892	       -0.0066665065	        0.0000000000	        0.0000000000	        0.0000000000	      -47.8703955054	      614.6181302231	       20.1356897852	        1.0637253992	        0.0000000000	       -0.0527964617	        0.0000000000	        0.0000000000	        0.0000000000	        0.0000000000	        0.0000000000	        0.0000000000	
        0.8259899348	       -0.1082835665	        0.0477950102	       -0.0077566574	        0.0000000000	        0.0000000000	        0.0000000000	      -40.7878818885	      601.0870821025	       20.1614713910	        1.0682425049	        0.0000000000	       -0.0527046693	        0.0000000000	        0.0000000000	        0.0000000000	        0.0000000000	        0.0000000000	        0.0000000000	
        0.8385049338	       -0.1485746101	        0.0640420865	       -0.0104233290	        0.0000000000	        0.0000000000	        0.0000000000	      -35.0778624204	      591.1166480461	       19.9634861971	        1.0727576329	        0.0000000000	       -0.0526135489	        0.0000000000	        0.0000000000	        0.0000000000	        0.0000000000	        0.0000000000	        0.0000000000	
        0.8510199328	       -0.2270517799	        0.0957508813	       -0.0154996861	        0.0000000000	        0.0000000000	        0.0000000000	      -29.8044670194	      584.4898417481	       19.6727256942	        1.0774907103	        0.0000000000	       -0.0524875585	        0.0000000000	        0.0000000000	        0.0000000000	        0.0000000000	        0.0000000000	        0.0000000000	
        0.8635349318	       -0.3666862815	        0.1516154255	       -0.0241714539	        0.0000000000	        0.0000000000	        0.0000000000	      -25.4667806824	      580.2403069339	       19.6271114394	        1.0825992203	        0.0000000000	       -0.0522812669	        0.0000000000	        0.0000000000	        0.0000000000	        0.0000000000	        0.0000000000	        0.0000000000	
